<svg width="40" height="40" viewBox="0 0 40 40" fill="none" xmlns="http://www.w3.org/2000/svg">
<circle cx="20" cy="20" r="20" fill="white"/>
<path d="M8 26.5829V13.4171C8 13.4019 8.02314 13.2571 8.06943 12.9829L15.9151 19.6114L8.09257 27.04C8.03086 26.8267 8 26.6743 8 26.5829ZM9.04147 12.0686C9.14947 12.0229 9.28062 12 9.43491 12H30.5651C30.704 12 30.8428 12.0229 30.9817 12.0686L23.1128 18.72L22.0714 19.5429L20.0116 21.2114L17.9518 19.5429L16.9103 18.72L9.04147 12.0686ZM9.06461 27.9314L16.9566 20.4571L20.0116 22.9029L23.0665 20.4571L30.9585 27.9314C30.8351 27.9771 30.704 28 30.5651 28H9.43491C9.31148 28 9.18804 27.9771 9.06461 27.9314ZM24.108 19.6114L31.9306 12.9829C31.9769 13.12 32 13.2648 32 13.4171V26.5829C32 26.72 31.9769 26.8724 31.9306 27.04L24.108 19.6114Z" fill="#1D6CAF"/>
</svg>
