<svg width="40" height="40" viewBox="0 0 40 40" fill="none" xmlns="http://www.w3.org/2000/svg">
<circle cx="20" cy="20" r="20" fill="white"/>
<path fill-rule="evenodd" clip-rule="evenodd" d="M19.9991 8C13.3734 8 8 13.3726 8 20.0006C8 25.3017 11.4381 29.7999 16.2066 31.3874C16.807 31.4973 17.0258 31.1266 17.0258 30.8084C17.0258 30.5233 17.0154 29.7689 17.0091 28.7678C13.6712 29.4926 12.967 27.1589 12.967 27.1589C12.4211 25.7725 11.6343 25.4034 11.6343 25.4034C10.5447 24.6593 11.7168 24.674 11.7168 24.674C12.9212 24.7588 13.5548 25.9109 13.5548 25.9109C14.6252 27.7445 16.3637 27.2149 17.0474 26.9077C17.1564 26.1327 17.4666 25.6037 17.8091 25.3039C15.1446 25.0004 12.3429 23.9713 12.3429 19.3729C12.3429 18.0624 12.8108 16.9919 13.5784 16.1529C13.4545 15.8493 13.0428 14.6294 13.6964 12.977C13.6964 12.977 14.7034 12.6544 16.9959 14.2066C17.9529 13.9406 18.9798 13.808 20.0001 13.8028C21.0197 13.807 22.0459 13.9407 23.0043 14.2066C25.2954 12.6544 26.3009 12.977 26.3009 12.977C26.9558 14.6294 26.544 15.8493 26.421 16.1529C27.1901 16.9919 27.6542 18.0624 27.6542 19.3729C27.6542 23.983 24.8482 24.9974 22.1755 25.2943C22.6057 25.6648 22.9895 26.3971 22.9895 27.5169C22.9895 29.1207 22.9749 30.415 22.9749 30.8084C22.9749 31.1296 23.1915 31.5031 23.8 31.3859C28.5649 29.7955 32 25.301 32 20.0006C32 13.3726 26.6267 8 19.9987 8" fill="#1D6CAF"/>
</svg>
