<svg width="40" height="40" viewBox="0 0 40 40" fill="none" xmlns="http://www.w3.org/2000/svg">
<circle cx="20" cy="20" r="20" fill="white"/>
<path d="M20.0093 14.1176C16.6022 14.1176 13.854 16.5222 13.854 19.5035C13.854 22.4847 16.6022 24.8894 20.0093 24.8894C23.4165 24.8894 26.1647 22.4847 26.1647 19.5035C26.1647 16.5222 23.4165 14.1176 20.0093 14.1176ZM20.0093 23.005C17.8076 23.005 16.0076 21.4347 16.0076 19.5035C16.0076 17.5722 17.8022 16.0019 20.0093 16.0019C22.2165 16.0019 24.0111 17.5722 24.0111 19.5035C24.0111 21.4347 22.2111 23.005 20.0093 23.005ZM27.8522 13.8973C27.8522 14.5957 27.2093 15.1535 26.4165 15.1535C25.6183 15.1535 24.9808 14.591 24.9808 13.8973C24.9808 13.2035 25.6236 12.641 26.4165 12.641C27.2093 12.641 27.8522 13.2035 27.8522 13.8973ZM31.9289 15.1723C31.8379 13.4894 31.3986 11.9988 29.9897 10.7707C28.5861 9.54258 26.8825 9.1582 24.9593 9.07383C22.9772 8.97539 17.0361 8.97539 15.054 9.07383C13.1361 9.15352 11.4326 9.53789 10.0237 10.766C8.61473 11.9941 8.1808 13.4848 8.08437 15.1676C7.97188 16.9019 7.97188 22.1004 8.08437 23.8347C8.17545 25.5175 8.61473 27.0082 10.0237 28.2363C11.4326 29.4644 13.1308 29.8488 15.054 29.9332C17.0361 30.0316 22.9772 30.0316 24.9593 29.9332C26.8825 29.8535 28.5861 29.4691 29.9897 28.2363C31.3932 27.0082 31.8325 25.5175 31.9289 23.8347C32.0414 22.1004 32.0414 16.9066 31.9289 15.1723ZM29.3682 25.6957C28.9504 26.6144 28.1415 27.3222 27.0861 27.6925C25.5058 28.241 21.7558 28.1144 20.0093 28.1144C18.2629 28.1144 14.5076 28.2363 12.9326 27.6925C11.8826 27.3269 11.0737 26.6191 10.6504 25.6957C10.0237 24.3129 10.1683 21.0316 10.1683 19.5035C10.1683 17.9754 10.029 14.6894 10.6504 13.3113C11.0683 12.3926 11.8772 11.6848 12.9326 11.3144C14.5129 10.766 18.2629 10.8926 20.0093 10.8926C21.7558 10.8926 25.5111 10.7707 27.0861 11.3144C28.1361 11.6801 28.945 12.3879 29.3682 13.3113C29.995 14.6941 29.8504 17.9754 29.8504 19.5035C29.8504 21.0316 29.995 24.3175 29.3682 25.6957Z" fill="#1D6CAF"/>
</svg>
