<svg width="40" height="40" viewBox="0 0 40 40" fill="none" xmlns="http://www.w3.org/2000/svg">
<circle cx="20" cy="20" r="20" fill="white"/>
<path d="M31.6253 13.1296C30.7563 13.4911 29.823 13.7354 28.8416 13.8453C29.8432 13.283 30.6104 12.3921 30.9727 11.3317C30.0213 11.8614 28.9801 12.2343 27.8943 12.4343C27.0107 11.5513 25.7507 11 24.3566 11C21.6809 11 19.5108 13.0336 19.5108 15.5436C19.5108 15.8992 19.5535 16.2462 19.6357 16.5793C15.6077 16.3895 12.0366 14.5807 9.64626 11.8321C9.22888 12.5034 8.98997 13.2839 8.98997 14.1166C8.98997 15.6927 9.84569 17.0834 11.146 17.898C10.3762 17.8757 9.62338 17.6809 8.95037 17.33V17.3874C8.95037 19.589 10.6207 21.4248 12.838 21.8423C12.4307 21.9469 12.0032 22.0016 11.561 22.0016C11.2484 22.0016 10.945 21.9738 10.6487 21.9216C11.2654 23.7261 13.0553 25.0396 15.1755 25.0768C13.5168 26.2958 11.4268 27.0224 9.15675 27.0224C8.76577 27.0224 8.37935 27.0005 8 26.9577C10.1452 28.2472 12.6922 29 15.4293 29C24.3434 29 29.2187 22.0765 29.2187 16.0724C29.2187 15.8753 29.214 15.6797 29.2039 15.4847C30.1538 14.8406 30.9737 14.0431 31.6253 13.1296Z" fill="#1D6CAF"/>
</svg>
